<svg width="247" height="214" viewBox="0 0 247 214" fill="none" xmlns="http://www.w3.org/2000/svg">
<g clip-path="url(#clip0_152_897)">
<path d="M140.643 105.132C146.201 105.132 150.707 100.622 150.707 95.0594C150.707 89.4963 146.201 84.9866 140.643 84.9866C135.085 84.9866 130.579 89.4963 130.579 95.0594C130.579 100.622 135.085 105.132 140.643 105.132Z" fill="#E6E6E6"/>
<path d="M165.307 108.004L154.79 97.4772C155.596 96.2222 156.143 94.818 156.397 93.3478C156.651 91.8776 156.607 90.3713 156.269 88.9182C155.931 87.4651 155.305 86.0947 154.428 84.8883C153.551 83.6818 152.441 82.6638 151.163 81.8946C148.758 80.4565 145.901 79.9749 143.158 80.5452C140.415 81.1156 137.986 82.6962 136.352 84.974C134.849 87.084 134.127 89.6524 134.31 92.2375C134.494 94.8226 135.571 97.2631 137.358 99.1392C139.144 101.015 141.527 102.21 144.098 102.518C146.669 102.826 149.267 102.227 151.445 100.826L161.962 111.352C162.405 111.796 163.007 112.045 163.634 112.045C164.261 112.044 164.863 111.795 165.306 111.351C165.75 110.907 165.999 110.305 165.999 109.677C165.999 109.05 165.75 108.448 165.307 108.004ZM151.052 97.0843C149.749 98.3886 148.035 99.2003 146.201 99.3811C144.367 99.5619 142.527 99.1007 140.994 98.0759C139.462 97.0511 138.332 95.5263 137.797 93.7612C137.262 91.996 137.355 90.0999 138.061 88.3957C138.766 86.6915 140.04 85.2849 141.665 84.4153C143.29 83.5458 145.166 83.2672 146.974 83.6271C148.781 83.9869 150.408 84.9629 151.577 86.3888C152.746 87.8147 153.385 89.6022 153.385 91.4467C153.387 92.4939 153.181 93.531 152.781 94.4985C152.38 95.466 151.793 96.3447 151.052 97.0843Z" fill="#3F3D56"/>
<path d="M241.541 123.53C268.436 153.301 190.472 196.204 127.475 196.204C64.4775 196.204 20.8934 162.962 13.4083 123.53C-4.74051 27.9229 168.04 -32.8446 127.475 50.8565C68.3453 172.861 220.36 100.086 241.541 123.53Z" fill="#E6E6E6"/>
<path d="M229.474 130.576C256.369 160.347 178.404 203.25 115.407 203.25C52.4101 203.25 8.826 170.007 1.3409 130.576C-16.8079 34.9687 155.973 -25.7989 115.407 57.9023C56.2779 179.906 208.293 107.131 229.474 130.576Z" fill="#3F3D56"/>
<path d="M62.3144 89.9248C43.4423 89.093 28.8096 85.0184 29.0019 80.6484C29.1171 78.0285 34.4581 75.9217 43.6553 74.8685C43.6882 74.8645 43.7216 74.8671 43.7535 74.8761C43.7855 74.885 43.8153 74.9002 43.8413 74.9208C43.8673 74.9414 43.8891 74.9669 43.9052 74.9959C43.9213 75.0249 43.9316 75.0568 43.9353 75.0897C43.9391 75.1227 43.9363 75.1561 43.9271 75.188C43.918 75.2199 43.9026 75.2496 43.8819 75.2756C43.8611 75.3015 43.8355 75.323 43.8064 75.339C43.7774 75.3549 43.7454 75.365 43.7125 75.3685C35.0487 76.3607 29.6044 78.3923 29.5042 80.6706C29.3303 84.6224 44.3657 88.63 62.3365 89.422C80.3074 90.214 95.6364 87.5445 95.8103 83.5927C95.9109 81.3049 90.6322 78.7952 82.034 77.0431C82.0015 77.0366 81.9707 77.0238 81.9432 77.0053C81.9158 76.9868 81.8922 76.9631 81.8739 76.9355C81.8556 76.908 81.843 76.877 81.8366 76.8445C81.8303 76.812 81.8304 76.7786 81.837 76.7462C81.8436 76.7137 81.8566 76.6829 81.8751 76.6555C81.8936 76.628 81.9174 76.6045 81.945 76.5863C81.9726 76.5681 82.0035 76.5555 82.036 76.5492C82.0685 76.543 82.1019 76.5432 82.1343 76.5499C91.2605 78.4097 96.4283 80.9847 96.3126 83.6149C96.1204 87.9849 81.1866 90.7565 62.3144 89.9248Z" fill="#6833FF"/>
<path d="M45.5531 90.6566C47.1319 93.6585 49.4706 96.1928 52.3352 98.0059C55.1998 99.819 58.4899 100.847 61.8763 100.988C65.2626 101.129 68.6266 100.377 71.6314 98.8075C74.6363 97.2383 77.1768 94.9067 78.9987 92.0461C67.8331 92.1967 56.6678 91.7328 45.5531 90.6566Z" fill="#6833FF"/>
<path d="M81.0863 86.7529C82.0365 83.9004 82.3102 80.8656 81.886 77.8888C81.4617 74.9121 80.3511 72.075 78.6419 69.6021C76.9328 67.1292 74.6721 65.0885 72.0387 63.6414C69.4054 62.1942 66.4716 61.3805 63.4697 61.2644C60.4678 61.1484 57.4801 61.7333 54.743 62.9729C52.006 64.2124 49.5948 66.0726 47.7002 68.4061C45.8057 70.7397 44.4797 73.4826 43.8274 76.4178C43.175 79.3529 43.2142 82.3998 43.9417 85.3172C56.2091 87.4016 68.6948 87.8842 81.0863 86.7529Z" fill="#6833FF"/>
<path d="M67.1513 73.7637C68.4009 73.7637 69.4139 72.7497 69.4139 71.499C69.4139 70.2482 68.4009 69.2343 67.1513 69.2343C65.9017 69.2343 64.8887 70.2482 64.8887 71.499C64.8887 72.7497 65.9017 73.7637 67.1513 73.7637Z" fill="white"/>
<path d="M55.5063 82.5684C57.589 82.5684 59.2773 80.8785 59.2773 78.7939C59.2773 76.7093 57.589 75.0194 55.5063 75.0194C53.4236 75.0194 51.7352 76.7093 51.7352 78.7939C51.7352 80.8785 53.4236 82.5684 55.5063 82.5684Z" fill="white"/>
<path d="M87.7156 49.7242C89.104 49.7242 90.2296 48.5976 90.2296 47.2079C90.2296 45.8182 89.104 44.6917 87.7156 44.6917C86.3272 44.6917 85.2017 45.8182 85.2017 47.2079C85.2017 48.5976 86.3272 49.7242 87.7156 49.7242Z" fill="#6833FF"/>
<path d="M30.8986 126.724C31.7317 126.724 32.407 126.048 32.407 125.214C32.407 124.381 31.7317 123.705 30.8986 123.705C30.0655 123.705 29.3901 124.381 29.3901 125.214C29.3901 126.048 30.0655 126.724 30.8986 126.724Z" fill="#E6E6E6"/>
<path d="M136.488 178.561C137.321 178.561 137.996 177.885 137.996 177.051C137.996 176.217 137.321 175.541 136.488 175.541C135.655 175.541 134.979 176.217 134.979 177.051C134.979 177.885 135.655 178.561 136.488 178.561Z" fill="#E6E6E6"/>
<path d="M78.5084 135.27C79.3415 135.27 80.0169 134.594 80.0169 133.76C80.0169 132.926 79.3415 132.25 78.5084 132.25C77.6753 132.25 77 132.926 77 133.76C77 134.594 77.6753 135.27 78.5084 135.27Z" fill="#E6E6E6"/>
<path d="M38.1893 97.5347C38.6058 97.5347 38.9435 97.1967 38.9435 96.7798C38.9435 96.3629 38.6058 96.0249 38.1893 96.0249C37.7727 96.0249 37.4351 96.3629 37.4351 96.7798C37.4351 97.1967 37.7727 97.5347 38.1893 97.5347Z" fill="#E6E6E6"/>
<path d="M100.537 153.901C100.954 153.901 101.291 153.563 101.291 153.146C101.291 152.729 100.954 152.391 100.537 152.391C100.121 152.391 99.783 152.729 99.783 153.146C99.783 153.563 100.121 153.901 100.537 153.901Z" fill="#E6E6E6"/>
<path d="M213.92 146.603C214.336 146.603 214.674 146.265 214.674 145.848C214.674 145.431 214.336 145.094 213.92 145.094C213.503 145.094 213.166 145.431 213.166 145.848C213.166 146.265 213.503 146.603 213.92 146.603Z" fill="#E6E6E6"/>
<path d="M178.472 168.999C178.889 168.999 179.226 168.661 179.226 168.244C179.226 167.827 178.889 167.489 178.472 167.489C178.055 167.489 177.718 167.827 177.718 168.244C177.718 168.661 178.055 168.999 178.472 168.999Z" fill="#E6E6E6"/>
<path d="M141.516 141.822C141.932 141.822 142.27 141.484 142.27 141.067C142.27 140.65 141.932 140.312 141.516 140.312C141.099 140.312 140.762 140.65 140.762 141.067C140.762 141.484 141.099 141.822 141.516 141.822Z" fill="#E6E6E6"/>
<path d="M93.7493 67.3387C94.1659 67.3387 94.5036 67.0007 94.5036 66.5838C94.5036 66.1668 94.1659 65.8289 93.7493 65.8289C93.3328 65.8289 92.9951 66.1668 92.9951 66.5838C92.9951 67.0007 93.3328 67.3387 93.7493 67.3387Z" fill="#E6E6E6"/>
<path d="M99.7829 30.0969C100.199 30.0969 100.537 29.7589 100.537 29.342C100.537 28.925 100.199 28.587 99.7829 28.587C99.3664 28.587 99.0287 28.925 99.0287 29.342C99.0287 29.7589 99.3664 30.0969 99.7829 30.0969Z" fill="#E6E6E6"/>
<path d="M96.2633 186.865C96.6798 186.865 97.0175 186.527 97.0175 186.11C97.0175 185.693 96.6798 185.355 96.2633 185.355C95.8467 185.355 95.509 185.693 95.509 186.11C95.509 186.527 95.8467 186.865 96.2633 186.865Z" fill="#E6E6E6"/>
<path d="M59.0557 171.012C59.4723 171.012 59.81 170.674 59.81 170.257C59.81 169.84 59.4723 169.502 59.0557 169.502C58.6392 169.502 58.3015 169.84 58.3015 170.257C58.3015 170.674 58.6392 171.012 59.0557 171.012Z" fill="#E6E6E6"/>
<path d="M176.964 143.835C177.38 143.835 177.718 143.497 177.718 143.08C177.718 142.663 177.38 142.325 176.964 142.325C176.547 142.325 176.209 142.663 176.209 143.08C176.209 143.497 176.547 143.835 176.964 143.835Z" fill="#E6E6E6"/>
<path d="M62.0076 99.2285C63.2572 99.2285 64.2702 98.2146 64.2702 96.9638C64.2702 95.713 63.2572 94.6991 62.0076 94.6991C60.758 94.6991 59.745 95.713 59.745 96.9638C59.745 98.2146 60.758 99.2285 62.0076 99.2285Z" fill="white"/>
<path d="M205.359 91.2493C205.295 91.373 205.242 91.5016 205.198 91.6339L193.185 94.9748L191.02 92.8544L187.396 95.7062L190.864 99.8327C191.144 100.166 191.525 100.4 191.949 100.498C192.373 100.596 192.817 100.554 193.215 100.379L206.192 94.6451C206.632 94.9509 207.155 95.1154 207.691 95.1166C208.227 95.1178 208.75 94.9556 209.192 94.6517C209.634 94.3478 209.972 93.9165 210.163 93.4152C210.354 92.9139 210.387 92.3664 210.26 91.8455C210.132 91.3246 209.849 90.8549 209.448 90.499C209.047 90.1431 208.547 89.9178 208.015 89.853C207.483 89.7883 206.944 89.8872 206.47 90.1367C205.995 90.3861 205.608 90.7741 205.359 91.2493H205.359Z" fill="#FFB8B8"/>
<path d="M192.762 95.1705L188.253 98.6832C188.125 98.7832 187.976 98.8543 187.818 98.8917C187.66 98.9291 187.496 98.9319 187.336 98.9C187.177 98.868 187.026 98.8021 186.894 98.7066C186.763 98.6112 186.653 98.4884 186.573 98.3468L183.771 93.3827C183.264 92.7228 183.038 91.8885 183.145 91.0627C183.251 90.2369 183.68 89.487 184.338 88.9775C184.996 88.4681 185.829 88.2405 186.655 88.3449C187.48 88.4492 188.23 88.8769 188.741 89.5341L192.848 93.4581C192.966 93.5704 193.058 93.7069 193.118 93.858C193.178 94.0092 193.205 94.1716 193.197 94.3341C193.189 94.4966 193.146 94.6555 193.071 94.7998C192.996 94.9441 192.89 95.0706 192.762 95.1705V95.1705Z" fill="#6833FF"/>
<path d="M206.511 89.5877L211.084 91.6468C211.275 91.733 211.424 91.8919 211.499 92.0884C211.573 92.2848 211.567 92.5029 211.481 92.6946L210.939 93.899C211.003 93.9279 211.053 93.9808 211.077 94.0463C211.102 94.1117 211.1 94.1843 211.072 94.2482L210.855 94.73C210.826 94.7937 210.773 94.8434 210.708 94.8683C210.643 94.8931 210.57 94.891 210.506 94.8625L210.29 95.3442C210.353 95.3732 210.403 95.4261 210.428 95.4916C210.453 95.557 210.451 95.6296 210.422 95.6935L210.206 96.1753C210.177 96.239 210.124 96.2887 210.058 96.3136C209.993 96.3384 209.92 96.3363 209.857 96.3078L206.933 102.812C206.847 103.003 206.688 103.153 206.492 103.227C206.296 103.302 206.078 103.295 205.886 103.209L201.314 101.15C201.122 101.064 200.973 100.905 200.899 100.708C200.824 100.512 200.831 100.294 200.917 100.102L205.464 89.9852C205.55 89.7936 205.709 89.644 205.905 89.5695C206.102 89.4949 206.32 89.5015 206.511 89.5877Z" fill="#3F3D56"/>
<path d="M202.144 100.509L205.812 102.163C205.996 102.245 206.205 102.251 206.393 102.18C206.582 102.109 206.734 101.966 206.818 101.782L208.512 98.0105L209.1 96.703L210.634 93.2903C210.716 93.1067 210.722 92.8981 210.65 92.71C210.579 92.522 210.437 92.3698 210.254 92.2866L209.1 91.7662L206.583 90.6331C206.399 90.551 206.19 90.5452 206.002 90.617C205.814 90.6888 205.662 90.8323 205.58 91.0161L204.097 94.3152L202.408 98.0712L201.764 99.5055C201.682 99.6891 201.676 99.8978 201.747 100.086C201.818 100.274 201.961 100.426 202.144 100.509Z" fill="#F2F2F2"/>
<path d="M194.479 147.244L197.562 147.243L199.028 135.344L194.479 135.344L194.479 147.244Z" fill="#FFB8B8"/>
<path d="M193.693 146.236L199.763 146.236H199.763C200.271 146.236 200.774 146.336 201.244 146.531C201.713 146.725 202.139 147.011 202.499 147.37C202.858 147.73 203.143 148.156 203.337 148.626C203.532 149.096 203.632 149.599 203.632 150.108V150.234L193.694 150.234L193.693 146.236Z" fill="#2F2E41"/>
<path d="M202.524 146.489L205.606 146.489L207.073 134.589L202.524 134.589L202.524 146.489Z" fill="#FFB8B8"/>
<path d="M201.738 145.481L207.808 145.481H207.808C208.316 145.481 208.819 145.581 209.289 145.776C209.758 145.97 210.184 146.256 210.543 146.615C210.903 146.975 211.188 147.402 211.382 147.871C211.576 148.341 211.676 148.844 211.676 149.353V149.479L201.738 149.479L201.738 145.481Z" fill="#2F2E41"/>
<path d="M180.654 119.321C181.311 121.27 182.557 122.965 184.219 124.174C185.881 125.383 187.877 126.044 189.931 126.067L190.087 126.07C191.678 126.115 193.546 125.602 195.379 124.865C198.999 123.408 202.476 121.075 203.399 120.433L201.835 135.479L201.201 141.578C201.185 141.736 201.203 141.895 201.252 142.046C201.301 142.197 201.381 142.336 201.488 142.453C201.594 142.571 201.723 142.665 201.868 142.73C202.013 142.795 202.169 142.828 202.328 142.829H206.232C206.482 142.829 206.726 142.746 206.924 142.593C207.122 142.44 207.264 142.226 207.328 141.983L213.774 117.411C213.967 116.676 213.983 115.905 213.819 115.162C213.656 114.419 213.318 113.726 212.834 113.14C212.35 112.554 211.733 112.092 211.035 111.792C210.336 111.492 209.577 111.363 208.819 111.415L195.429 112.333L196.364 108.589L184.413 107.794L184.378 107.819C184.091 108.028 183.812 108.247 183.545 108.476C182.879 109.04 182.288 109.688 181.788 110.403C180.893 111.687 180.322 113.169 180.125 114.723C179.927 116.276 180.109 117.854 180.654 119.321Z" fill="#2F2E41"/>
<path d="M180.654 119.321C181.311 121.269 182.557 122.965 184.219 124.174C185.881 125.383 187.877 126.044 189.931 126.067C191.895 125.072 193.791 123.947 195.605 122.698L195.379 124.865L193.408 143.843C193.392 144.001 193.409 144.16 193.458 144.311C193.508 144.461 193.588 144.6 193.694 144.718C193.8 144.836 193.93 144.93 194.074 144.995C194.219 145.059 194.376 145.093 194.534 145.093H198.438C198.689 145.094 198.932 145.011 199.131 144.858C199.329 144.705 199.471 144.49 199.535 144.248L201.835 135.478L205.981 119.676C206.174 118.94 206.189 118.169 206.026 117.427C205.862 116.684 205.525 115.991 205.04 115.405C204.556 114.819 203.939 114.357 203.241 114.057C202.543 113.757 201.783 113.627 201.025 113.679L187.636 114.598L188.571 110.854L181.788 110.403C180.893 111.687 180.322 113.169 180.125 114.722C179.927 116.276 180.109 117.854 180.654 119.321Z" fill="#2F2E41"/>
<path d="M183.528 109.344L183.438 109.333L181.353 99.0701C181.335 98.981 179.63 90.1288 184.857 85.5009L184.948 84.8676C184.971 84.7055 185.029 84.5504 185.118 84.4129C185.207 84.2755 185.325 84.159 185.463 84.0715C185.601 83.984 185.757 83.9276 185.919 83.9061C186.081 83.8847 186.246 83.8987 186.402 83.9472L191.326 85.4758C191.605 85.5617 191.84 85.7522 191.981 86.0075C192.123 86.2628 192.16 86.5629 192.085 86.8451L191.607 88.6674C192.27 89.4475 200.082 98.8616 197.361 106.114L196.142 110.883L183.528 109.344Z" fill="#6833FF"/>
<path d="M203.972 101.334C203.855 101.408 203.743 101.492 203.638 101.583L191.597 98.3478L190.81 95.4203L186.24 96.032L187.131 101.35C187.203 101.78 187.412 102.174 187.727 102.475C188.042 102.775 188.446 102.965 188.878 103.017L202.965 104.682C203.189 105.17 203.555 105.577 204.016 105.851C204.477 106.125 205.01 106.251 205.545 106.214C206.08 106.177 206.59 105.978 207.009 105.644C207.428 105.309 207.735 104.855 207.89 104.341C208.044 103.827 208.039 103.279 207.874 102.768C207.71 102.258 207.394 101.81 206.969 101.483C206.544 101.157 206.029 100.968 205.494 100.941C204.959 100.914 204.428 101.051 203.972 101.334H203.972Z" fill="#FFB8B8"/>
<path d="M191.133 98.301L185.466 99.0316C185.305 99.0524 185.141 99.0381 184.986 98.9898C184.83 98.9415 184.687 98.8603 184.566 98.7517C184.445 98.6431 184.349 98.5097 184.284 98.3604C184.219 98.2112 184.187 98.0498 184.19 97.8871L184.298 92.1864C184.197 91.3601 184.427 90.5272 184.938 89.8702C185.449 89.2133 186.199 88.786 187.024 88.6821C187.85 88.5781 188.683 88.806 189.34 89.3157C189.998 89.8255 190.427 90.5754 190.533 91.4012L192.077 96.8703C192.121 97.0269 192.131 97.1912 192.106 97.352C192.081 97.5128 192.022 97.6663 191.932 97.802C191.843 97.9378 191.725 98.0527 191.587 98.1388C191.449 98.2248 191.294 98.2802 191.133 98.301Z" fill="#6833FF"/>
<path d="M189.538 82.5541C192.948 82.5541 195.712 79.7871 195.712 76.3737C195.712 72.9604 192.948 70.1934 189.538 70.1934C186.128 70.1934 183.363 72.9604 183.363 76.3737C183.363 79.7871 186.128 82.5541 189.538 82.5541Z" fill="#FFB8B8"/>
<path d="M189.213 76.8899L188.44 75.4809C186.976 81.4527 189.562 86.395 189.562 86.395L179.523 81.7144L179.619 80.0536L178.625 81.182L177.198 80.3947L177.009 79.3175L175.932 79.5846L179.865 72.4414C183.682 65.644 189.231 68.2392 189.231 68.2392C198.059 67.8191 196.981 76.5369 196.981 76.5369L189.213 76.8899Z" fill="#2F2E41"/>
<path d="M118.924 122.947C120.347 122.033 118.616 116.788 115.057 111.23C111.497 105.673 107.458 101.908 106.034 102.822C104.61 103.735 106.342 108.981 109.901 114.538C113.46 120.096 117.5 123.86 118.924 122.947Z" fill="#3F3D56"/>
</g>
<defs>
<clipPath id="clip0_152_897">
<rect width="247" height="192" fill="white" transform="translate(0 11.25)"/>
</clipPath>
</defs>
</svg>
