<svg width="52" height="52" viewBox="0 0 52 52" fill="none" xmlns="http://www.w3.org/2000/svg">
<path d="M26 6C28.6264 6 31.2272 6.51732 33.6537 7.52241C36.0802 8.5275 38.285 10.0007 40.1421 11.8579C41.9993 13.715 43.4725 15.9198 44.4776 18.3463C45.4827 20.7728 46 23.3736 46 26C46 28.6264 45.4827 31.2272 44.4776 33.6537C43.4725 36.0802 41.9993 38.285 40.1421 40.1421C38.285 41.9993 36.0802 43.4725 33.6537 44.4776C31.2272 45.4827 28.6264 46 26 46C23.3736 46 20.7728 45.4827 18.3463 44.4776C15.9198 43.4725 13.715 41.9993 11.8579 40.1421C10.0007 38.285 8.5275 36.0802 7.52241 33.6537C6.51731 31.2271 6 28.6264 6 26C6 23.3736 6.51732 20.7728 7.52241 18.3463C8.52751 15.9198 10.0007 13.715 11.8579 11.8579C13.715 10.0007 15.9198 8.5275 18.3463 7.5224C20.7729 6.51731 23.3736 6 26 6L26 6Z" stroke="#F2F4F8" stroke-width="12"/>
<path d="M26 6C22.0444 6 18.1776 7.17298 14.8886 9.37061C11.5996 11.5682 9.03616 14.6918 7.52241 18.3463C6.00866 22.0009 5.61259 26.0222 6.38429 29.9018C7.156 33.7814 9.06081 37.3451 11.8579 40.1421" stroke="#6833FF" stroke-width="12" stroke-linecap="round" stroke-linejoin="round"/>
</svg>
